<svg xmlns="http://www.w3.org/2000/svg" fill="none" viewBox="0 0 24 24" height="24" width="24">
<path fill="#45443F" d="M2.99844 0C9.74404 6.74243 16.4891 13.4849 23.237 20.2249C23.6548 20.6419 23.9535 21.1111 23.9945 21.7106C24.0591 22.6437 23.5468 23.4706 22.689 23.8384C21.8804 24.185 20.8834 23.9627 20.2685 23.2806C19.1923 22.0871 18.1238 20.8859 17.0518 19.6877C15.6159 18.083 14.1801 16.4772 12.7431 14.8737C12.4426 14.5382 12.4397 14.5406 12.1228 14.8573C11.8963 15.0837 11.6675 15.3071 11.4451 15.537C11.3565 15.6285 11.2808 15.6444 11.194 15.5411C11.1588 15.4995 11.1171 15.4637 11.0784 15.425C8.34575 12.6943 5.61958 9.95705 2.87756 7.23568C1.92815 6.29375 1.43409 5.17119 1.33609 3.84745C1.24338 2.59527 1.52738 1.41758 1.97451 0.265099C2.00854 0.178883 2.0326 0.0885618 2.06135 0C2.37352 0 2.68627 0 2.99844 0Z"></path>
<path fill="#45443F" d="M19.0216 0C19.2903 0.272137 19.5509 0.552485 19.8308 0.812892C19.9857 0.957171 19.9915 1.04808 19.8349 1.20233C18.6912 2.33252 17.557 3.47209 16.4204 4.60873C16.2788 4.75028 16.2798 4.89299 16.4233 5.03688C16.6111 5.22456 16.8083 5.40403 16.9831 5.60227C17.121 5.75828 17.2126 5.74772 17.3569 5.60227C18.4776 4.47149 19.606 3.34834 20.7321 2.22284C20.8995 2.05549 21.0667 2.0553 21.2337 2.22226C21.4215 2.40994 21.6093 2.59703 21.7965 2.7853C21.9381 2.92762 21.9353 3.07268 21.7883 3.22048C20.6569 4.35185 19.5286 5.48614 18.3896 6.60988C18.2306 6.76648 18.2095 6.85738 18.3873 7.0087C18.6003 7.19052 18.7974 7.39345 18.9835 7.60341C19.1096 7.74535 19.1894 7.73362 19.3179 7.60341C20.1077 6.80401 20.9052 6.01165 21.6997 5.21752C22.064 4.85331 22.4319 4.49261 22.7905 4.12311C22.9119 3.9976 23 3.97121 23.1314 4.11431C23.3638 4.36651 23.6102 4.60639 23.859 4.84333C23.9699 4.9489 23.967 5.02222 23.859 5.13013C22.2107 6.77117 20.5719 8.421 18.9171 10.055C18.3046 10.6603 17.5335 10.9412 16.6821 11.0139C16.6275 11.0186 16.5659 11.0092 16.5202 11.0321C16.1517 11.2163 15.931 11.0186 15.6852 10.7664C14.8032 9.86027 13.9031 8.97231 13.0048 8.08317C12.8798 7.96001 12.834 7.85326 12.8892 7.67379C12.9531 7.46735 12.9731 7.24623 13.0001 7.0304C13.101 6.2181 13.4478 5.52778 14.0246 4.95125C15.674 3.30083 17.3246 1.651 18.9747 0.001173C18.9905 0.001173 19.0058 0.001173 19.0216 0.001173V0Z"></path>
<path fill="#45443F" d="M0 21.4941C0.134372 20.9 0.488786 20.4502 0.913027 20.029C2.98905 17.9675 5.05451 15.8954 7.12408 13.8274C7.26725 13.6843 7.4114 13.6851 7.55653 13.8297C8.42848 14.7007 9.29692 15.5757 10.1759 16.4402C10.3296 16.5916 10.3279 16.6772 10.1759 16.8291C8.04121 18.9534 5.91297 21.0842 3.78296 23.2126C3.3816 23.6137 2.92626 23.8929 2.34183 23.9651C1.39712 24.0818 0.383166 23.4489 0.0985788 22.5305C0.0686531 22.4337 0.0334464 22.3393 0.000586778 22.2437C0.000586778 21.9938 0.000586778 21.744 0.000586778 21.4941H0Z"></path>
</svg>
