<svg xmlns="http://www.w3.org/2000/svg" fill="none" viewBox="0 0 24 19" height="19" width="24">
<path fill="#45443F" d="M0 15.7482V10.1389C0.158927 9.72564 0.398568 9.36075 0.851571 9.18494C1.10998 9.08464 1.16755 8.94226 1.15691 8.70765C1.12563 7.99057 1.44035 7.40606 2.02913 6.95068C2.18555 6.82962 2.23686 6.70684 2.23624 6.52757C2.2306 5.10377 2.23248 3.67998 2.23373 2.25618C2.23373 1.7028 2.42645 1.2111 2.81563 0.789147C3.3775 0.181006 4.11958 -0.00114744 4.95426 5.43056e-06C9.64509 0.00576979 14.3366 0.00173474 19.0274 0.00461692C19.2764 0.00461692 19.5298 0.0103813 19.7732 0.0524611C20.9289 0.252485 21.7385 1.14942 21.7442 2.236C21.751 3.67421 21.746 5.11242 21.7467 6.55063C21.7467 6.67226 21.7367 6.78985 21.863 6.88208C22.5419 7.37493 22.8742 8.01881 22.8241 8.81775C22.8129 8.99991 22.8973 9.07888 23.0681 9.15439C23.6688 9.42128 23.996 9.86514 23.9967 10.4894C23.9992 12.1363 24.0035 13.7832 23.9948 15.4295C23.9917 16.0607 23.6638 16.5564 23.0212 16.7443C22.5619 16.8786 22.4668 17.0815 22.4906 17.4724C22.5119 17.8292 22.1872 18.092 21.8036 18.099C21.4107 18.1059 21.0934 17.8459 21.0634 17.4879C21.0565 17.4095 21.0603 17.33 21.0597 17.251C21.0592 17.007 20.9266 16.885 20.6617 16.885C14.8778 16.885 9.09386 16.885 3.30993 16.885C3.25549 16.885 3.20043 16.8879 3.146 16.885C2.98895 16.8758 2.91386 16.9369 2.92012 17.0867C2.92575 17.2159 2.92575 17.3461 2.91762 17.4747C2.89384 17.8367 2.58412 18.1013 2.19181 18.0995C1.79762 18.0984 1.49979 17.8338 1.48102 17.4643C1.47476 17.3352 1.47476 17.2055 1.47852 17.0764C1.48227 16.9582 1.43284 16.8861 1.30207 16.8619C0.621315 16.7363 0.211485 16.3408 0.000625695 15.7488L0 15.7482ZM12.0165 10.3661C8.60644 10.3661 5.19702 10.3661 1.78699 10.3661C1.45224 10.3661 1.42283 10.3926 1.42283 10.6964C1.42221 12.1916 1.42283 13.6869 1.42283 15.1822C1.42283 15.5056 1.44598 15.5286 1.79199 15.5286C8.58829 15.5286 15.3846 15.5286 22.1809 15.5286C22.5338 15.5286 22.5569 15.5067 22.5569 15.1885C22.5569 13.7152 22.5569 12.2412 22.5569 10.7678C22.5569 10.3712 22.5519 10.3661 22.129 10.3661C18.7583 10.3661 15.3871 10.3661 12.0165 10.3661ZM11.9971 1.35175C9.59316 1.35175 7.18986 1.35175 4.78594 1.35175C4.06577 1.35175 3.70537 1.68089 3.70412 2.3438C3.70161 3.51569 3.70036 4.68759 3.70412 5.85948C3.70662 6.48376 3.60463 6.41805 4.3417 6.42266C4.51314 6.42381 4.57759 6.35579 4.57446 6.20131C4.5682 5.89926 4.56883 5.5972 4.57446 5.29573C4.5901 4.54578 5.20203 3.93822 6.00855 3.86328C6.51474 3.81601 7.02218 3.83965 7.52899 3.84195C8.37931 3.84599 9.23088 3.80276 10.0793 3.86501C10.8114 3.91862 11.3514 4.37804 11.504 5.04152C11.5647 5.30495 11.5291 5.57184 11.5353 5.837C11.5516 6.4976 11.4139 6.41517 12.191 6.42381C12.3681 6.42554 12.4463 6.36617 12.4426 6.1967C12.4344 5.88773 12.4344 5.57818 12.4432 5.26921C12.4645 4.54348 13.0808 3.93937 13.8579 3.86386C14.2321 3.82754 14.6062 3.83792 14.9804 3.84195C15.979 3.85118 16.9782 3.80103 17.9756 3.86789C18.652 3.91343 19.202 4.37458 19.3584 4.98387C19.4353 5.28247 19.3953 5.5851 19.4028 5.886C19.4172 6.47857 19.2977 6.41805 20.0179 6.42439C20.2137 6.42612 20.2763 6.34715 20.2757 6.17652C20.2719 4.86109 20.2725 3.54509 20.2732 2.22908C20.2732 2.04347 20.2262 1.87227 20.1067 1.7224C19.8896 1.45032 19.5886 1.3506 19.2307 1.35117C16.8193 1.35348 14.4079 1.35233 11.9965 1.35233L11.9971 1.35175ZM11.9908 9.0074C14.9723 9.0074 17.9537 9.0074 20.9351 9.0074C21.0133 9.0074 21.0916 9.00394 21.1691 9.0074C21.3312 9.01432 21.3831 8.94111 21.3881 8.79758C21.4088 8.19001 20.9946 7.78132 20.3357 7.77959C19.1181 7.77671 17.9005 7.77844 16.6829 7.77844C12.3437 7.77844 8.00389 7.77844 3.6647 7.77901C3.04651 7.77901 2.63731 8.11565 2.59538 8.64828C2.5691 8.98146 2.59351 9.0074 2.95266 9.0074C5.96538 9.0074 8.9781 9.0074 11.9902 9.0074H11.9908ZM8.08023 5.19139C7.49583 5.19139 6.91143 5.19543 6.32703 5.18909C6.13119 5.18678 6.03608 5.25249 6.04046 5.43868C6.04547 5.68252 6.04422 5.92692 6.04046 6.17076C6.03796 6.33735 6.10804 6.42324 6.30138 6.42266C7.47018 6.41978 8.63898 6.41978 9.80777 6.42266C9.99924 6.42266 10.0737 6.34138 10.0712 6.17306C10.0674 5.92923 10.0662 5.68482 10.0712 5.44099C10.0749 5.2571 9.98422 5.18736 9.7865 5.18909C9.21774 5.19543 8.64899 5.19139 8.08023 5.19139ZM15.9246 6.42151C16.5015 6.42151 17.0777 6.41805 17.654 6.42324C17.8492 6.42496 17.9437 6.35637 17.9393 6.17133C17.9337 5.9275 17.9356 5.68309 17.9393 5.43926C17.9418 5.27209 17.8711 5.18966 17.6765 5.19024C16.5077 5.1937 15.3389 5.1937 14.1701 5.19024C13.9749 5.18966 13.9061 5.2744 13.9086 5.44041C13.9117 5.656 13.9073 5.87101 13.9086 6.0866C13.9105 6.3973 13.9355 6.42093 14.2652 6.42208C14.8183 6.42324 15.3715 6.42208 15.9246 6.42208V6.42151Z"></path>
</svg>
