<svg xmlns="http://www.w3.org/2000/svg" fill="none" viewBox="0 0 29 18" height="18" width="29">
<path fill="#45443F" d="M0 10.2864C0.700799 9.98522 1.3806 9.63592 2.11953 9.42424C3.00934 9.16946 3.91132 9.00476 4.83706 9.00587C5.09626 9.00587 5.09405 8.91081 5.04265 8.70852C4.35623 5.98934 4.79837 3.43761 6.18781 1.02572C6.29226 0.844438 6.39727 0.817909 6.5885 0.876493C8.25594 1.38551 9.73878 2.20679 10.9624 3.46193C11.1398 3.64376 11.1901 3.57413 11.2785 3.3934C11.9069 2.10952 12.7636 1.00803 13.89 0.117663C14.0856 -0.0370874 14.2072 -0.0404036 14.4051 0.114899C15.5347 1.0025 16.3908 2.10455 17.0148 3.39064C17.1187 3.60507 17.1834 3.61613 17.3508 3.44535C18.564 2.20735 20.0319 1.39712 21.6789 0.886994C21.9088 0.815698 22.0193 0.86765 22.1371 1.07325C23.1811 2.89378 23.6846 4.84363 23.5503 6.94437C23.5116 7.55011 23.4143 8.15087 23.2468 8.73671C23.1965 8.91302 23.2048 9.00366 23.4331 9.00531C25.0458 9.01747 26.5596 9.43033 27.9938 10.156C28.0916 10.2057 28.1961 10.2433 28.2972 10.287V10.5081C28.174 10.864 28.0668 11.2271 27.9242 11.5753C26.3413 15.4451 23.4314 17.5536 19.3018 17.9609C17.6023 18.1284 15.9697 17.7476 14.4299 17.0054C14.2426 16.9153 14.0906 16.8948 13.8905 16.991C12.0755 17.8653 10.1649 18.2091 8.17359 17.8675C4.69391 17.2706 2.14827 15.4015 0.625634 12.1871C0.368638 11.6449 0.19786 11.0718 0 10.5081V10.2864ZM16.6091 8.69471C16.5948 8.44103 16.5821 8.15584 16.5622 7.87177C16.5533 7.74355 16.5312 7.61643 16.5135 7.48931C16.2554 5.62678 15.5867 3.93834 14.3874 2.47484C14.1497 2.18524 14.1431 2.18248 13.9087 2.47761C12.3386 4.45289 11.6057 6.70451 11.724 9.22362C11.8163 11.1856 12.5762 12.8752 13.8833 14.3276C14.1027 14.5714 14.195 14.5697 14.4167 14.326C15.8569 12.737 16.5721 10.8634 16.6097 8.69526L16.6091 8.69471ZM16.9662 13.7567C17.0977 13.7053 17.1574 13.6871 17.2127 13.66C21.1953 11.7295 22.8301 7.07978 21.2439 3.13751C21.1599 2.92915 21.0731 2.93302 20.8974 3.01758C19.8103 3.5382 18.8718 4.24729 18.082 5.16032C17.8969 5.37476 17.8604 5.56543 17.9317 5.83403C18.3766 7.50534 18.4612 9.19101 18.0865 10.8888C17.8687 11.8754 17.5028 12.8055 16.9667 13.7567H16.9662ZM11.2763 13.7462C11.2763 13.6909 11.2796 13.6799 11.2763 13.6727C11.2393 13.5986 11.2012 13.5251 11.1625 13.4522C10.3727 11.9605 9.96869 10.3771 9.97975 8.68365C9.98638 7.67335 10.1312 6.68682 10.3915 5.71521C10.4396 5.53559 10.4142 5.40129 10.2959 5.25925C9.48841 4.28763 8.51017 3.54152 7.36833 3.00321C7.2064 2.92694 7.13234 2.94241 7.06159 3.11816C6.76867 3.84881 6.557 4.60322 6.49399 5.38526C6.27513 8.08786 7.11189 10.4086 9.07943 12.2932C9.71335 12.9006 10.4429 13.3792 11.2769 13.7457L11.2763 13.7462ZM16.3002 15.8519C16.3831 15.9442 16.4577 15.9503 16.5279 15.9702C17.5603 16.2637 18.6126 16.3416 19.671 16.1896C22.6113 15.7674 24.7479 14.2171 26.0755 11.5581C26.223 11.263 26.2048 11.2332 25.8953 11.1342C24.9397 10.8275 23.9615 10.7059 22.9578 10.7286C22.6256 10.7363 22.4366 10.8308 22.2708 11.1342C21.4164 12.6945 20.2038 13.9175 18.6784 14.8317C17.9406 15.2738 17.1508 15.5966 16.3002 15.8525V15.8519ZM11.9694 15.8735C11.1802 15.6126 10.4235 15.3042 9.71391 14.8897C8.08461 13.9385 6.82228 12.6303 5.92252 10.9729C5.85399 10.8463 5.78711 10.7501 5.61689 10.7413C4.50324 10.6844 3.4128 10.7932 2.3511 11.1514C2.14716 11.2199 2.09189 11.3006 2.19138 11.5101C2.57438 12.3148 3.0519 13.0548 3.67532 13.692C5.50248 15.5601 7.72647 16.4068 10.3324 16.2311C10.8895 16.1935 11.441 16.0918 11.9694 15.8729V15.8735Z"></path>
</svg>
